<mxfile host="app.diagrams.net" modified="2023-08-18T01:52:07.581Z" agent="Mozilla/5.0 (Macintosh; Intel Mac OS X 10_15_7) AppleWebKit/537.36 (KHTML, like Gecko) Chrome/116.0.0.0 Safari/537.36" version="21.6.8" etag="t1c0DuoO0WZRbQNqbgec" type="github">
  <diagram name="第 1 页" id="xmJqY_Tj51D9jGePW122">
    <mxGraphModel>
      <root>
        <mxCell id="0" />
        <mxCell id="1" parent="0" />
      </root>
    </mxGraphModel>
  </diagram>
</mxfile>
